<svg xmlns="http://www.w3.org/2000/svg" viewBox="0 0 108 38" fill="none">
  <path fill="#fff" d="M14.508 6.349L1 32.667h27.016L14.508 6.349zM14.537 20.19l4.853 9.58H9.685l4.852-9.58zM36.393 13.785h-4.445l-6.133 18.844h4.113l1.516-4.828h6.17l1.535 4.828h4.17L36.393 13.785zm-3.758 10.812l2.125-6.594 2.144 6.594h-4.269zM51.217 23.875c1.844-.438 3.016-2.055 3.016-4.035 0-2.906-2.02-5.144-5.336-5.144h-6.074v18.844h3.875v-6.66h2.086l3.27 6.66h4.445l-3.504-6.907zm-4.52-6.855h2.07c1.32 0 2.105.757 2.105 1.957 0 1.183-.785 1.958-2.106 1.958h-2.07v-3.915zM66.914 27.72v-4.64h4.007v-3.278h-4.007v-2.508h4.757v-3.278h-8.617v18.844h8.84v-3.278h-5.097zM84.605 19.514c0-3.435-2.602-5.673-6.426-5.673s-6.426 2.238-6.426 5.673c0 2.375 1.34 3.99 3.627 4.69l2.453.746c1.488.45 2.055.902 2.055 1.75 0 1.086-.992 1.679-2.414 1.679-1.57 0-2.68-.72-2.68-2.09h-3.758c0 3.172 2.512 5.272 6.496 5.272 3.773 0 6.457-2.144 6.457-5.472 0-2.453-1.418-4.04-4.086-4.851l-2.43-.746c-1.277-.385-1.98-.86-1.98-1.722 0-1.028.914-1.61 2.297-1.61 1.5 0 2.476.767 2.476 1.94h3.688zM89.219 17.132v-3.348h-3.816v18.844h3.816v-6.947l1.734-1.94 4.074 8.887h4.293l-5.754-11.942 5.735-6.554H95.2l-5.981 6.827v-3.827z"/>
</svg>
